<mxfile host="app.diagrams.net" modified="2022-12-06T01:12:34.969Z" agent="5.0 (Windows NT 10.0; Win64; x64) AppleWebKit/537.36 (KHTML, like Gecko) Chrome/108.0.0.0 Safari/537.36" etag="pWwXuDQAFmtXOVvvKDn8" version="20.5.1" type="github">
  <diagram id="WMb7nSwPNvHtDMvNtBKn" name="第 1 页">
    <mxGraphModel dx="1185" dy="628" grid="1" gridSize="10" guides="1" tooltips="1" connect="1" arrows="1" fold="1" page="1" pageScale="1" pageWidth="827" pageHeight="1169" math="0" shadow="0">
      <root>
        <mxCell id="0" />
        <mxCell id="1" parent="0" />
        <mxCell id="2gOevRPpKoV8D6QDawlo-7" value="" style="edgeStyle=orthogonalEdgeStyle;rounded=0;orthogonalLoop=1;jettySize=auto;html=1;" edge="1" parent="1" source="2gOevRPpKoV8D6QDawlo-3" target="2gOevRPpKoV8D6QDawlo-4">
          <mxGeometry relative="1" as="geometry" />
        </mxCell>
        <mxCell id="2gOevRPpKoV8D6QDawlo-3" value="进入试用页面" style="rounded=1;whiteSpace=wrap;html=1;" vertex="1" parent="1">
          <mxGeometry x="40" y="120" width="80" height="40" as="geometry" />
        </mxCell>
        <mxCell id="2gOevRPpKoV8D6QDawlo-6" value="" style="edgeStyle=orthogonalEdgeStyle;rounded=0;orthogonalLoop=1;jettySize=auto;html=1;" edge="1" parent="1" source="2gOevRPpKoV8D6QDawlo-4" target="2gOevRPpKoV8D6QDawlo-5">
          <mxGeometry relative="1" as="geometry" />
        </mxCell>
        <mxCell id="2gOevRPpKoV8D6QDawlo-4" value="获取试用商品信息" style="rounded=0;whiteSpace=wrap;html=1;" vertex="1" parent="1">
          <mxGeometry x="160" y="120" width="80" height="40" as="geometry" />
        </mxCell>
        <mxCell id="2gOevRPpKoV8D6QDawlo-9" value="" style="edgeStyle=orthogonalEdgeStyle;rounded=0;orthogonalLoop=1;jettySize=auto;html=1;" edge="1" parent="1" source="2gOevRPpKoV8D6QDawlo-5" target="2gOevRPpKoV8D6QDawlo-8">
          <mxGeometry relative="1" as="geometry" />
        </mxCell>
        <mxCell id="2gOevRPpKoV8D6QDawlo-5" value="获取试用申请信息" style="rounded=0;whiteSpace=wrap;html=1;" vertex="1" parent="1">
          <mxGeometry x="270" y="120" width="80" height="40" as="geometry" />
        </mxCell>
        <mxCell id="2gOevRPpKoV8D6QDawlo-8" value="" style="rhombus;whiteSpace=wrap;html=1;rounded=0;" vertex="1" parent="1">
          <mxGeometry x="430" y="100" width="80" height="80" as="geometry" />
        </mxCell>
      </root>
    </mxGraphModel>
  </diagram>
</mxfile>
